<svg width="159" height="32" viewBox="0 0 159 32" fill="none" xmlns="http://www.w3.org/2000/svg">
<path d="M44.2483 7.30942V20.1101C44.2483 24.3334 42.1716 26.445 38.0181 26.445C36.3079 26.445 34.8943 25.9913 33.7774 25.0838C32.5035 24.0542 31.8665 22.5795 31.8665 20.6598V19.0368H35.5837V19.8745C35.5837 21.9512 36.3777 22.9896 37.9658 22.9896C38.9256 22.9896 39.5626 22.6406 39.8767 21.9425C40.0512 21.5411 40.1385 20.8693 40.1385 19.9269V7.30942H44.2483ZM47.2368 19.2463C47.2368 17.0823 47.8738 15.3546 49.1478 14.0632C50.4217 12.7543 52.1145 12.0999 54.2262 12.0999C56.3553 12.0999 58.0568 12.7543 59.3308 14.0632C60.6047 15.3546 61.2417 17.0823 61.2417 19.2463C61.2417 21.3928 60.6047 23.1205 59.3308 24.4294C58.0568 25.7208 56.3553 26.3665 54.2262 26.3665C52.1145 26.3665 50.4217 25.7208 49.1478 24.4294C47.8738 23.1205 47.2368 21.3928 47.2368 19.2463ZM50.954 19.2463C50.954 20.4853 51.1896 21.4713 51.6608 22.2043C52.2193 23.1118 53.0744 23.5655 54.2262 23.5655C56.4251 23.5655 57.5245 22.1258 57.5245 19.2463C57.5245 16.3493 56.4251 14.9008 54.2262 14.9008C52.0447 14.9008 50.954 16.3493 50.954 19.2463ZM72.284 20.7645V19.3771C71.9873 19.6389 71.3416 19.8396 70.3469 19.9792C69.2125 20.1537 68.4621 20.3195 68.0956 20.4766C67.3627 20.8082 66.9962 21.3666 66.9962 22.1519C66.9962 23.3037 67.7553 23.8796 69.2736 23.8796C71.2805 23.8796 72.284 22.8413 72.284 20.7645ZM67.415 16.6285H63.6979C63.8026 15.023 64.5094 13.8363 65.8182 13.0684C66.9002 12.4227 68.3138 12.0999 70.0589 12.0999C74.0204 12.0999 76.0012 13.3825 76.0012 15.9479V22.9896C76.0012 24.4904 76.1582 25.4939 76.4724 26H72.7028C72.5458 25.5114 72.4585 25.0751 72.4411 24.6911C71.3765 25.808 69.8582 26.3665 67.8862 26.3665C66.525 26.3665 65.4343 26.0349 64.6141 25.3717C63.724 24.6562 63.279 23.6353 63.279 22.309C63.279 20.9303 63.7589 19.9007 64.7188 19.2201C65.4168 18.7489 66.4726 18.4086 67.8862 18.1992C69.8931 17.9199 70.9141 17.7716 70.949 17.7542C71.839 17.5273 72.284 17.0823 72.284 16.4191C72.284 15.6861 72.0397 15.1801 71.551 14.9008C71.202 14.6914 70.6436 14.5867 69.8757 14.5867C68.3574 14.5867 67.5372 15.2673 67.415 16.6285ZM79.0827 26V12.4663H82.6167V14.3511H82.6952C83.6201 12.8503 84.9988 12.0999 86.8312 12.0999C88.6985 12.0999 90.0161 12.606 90.784 13.6181C91.4471 14.4907 91.7787 15.8432 91.7787 17.6756V26H88.0615V18.3562C88.0615 16.1399 87.2675 15.0317 85.6794 15.0317C84.6672 15.0317 83.9343 15.3371 83.4805 15.9479C83.0268 16.5587 82.7999 17.5447 82.7999 18.906V26H79.0827ZM94.901 26V12.4663H98.6182V26H94.901ZM98.6182 7.30942V10.3722H94.901V7.30942H98.6182ZM101.741 26V12.4663H105.275V14.3511H105.354C106.279 12.8503 107.657 12.0999 109.49 12.0999C111.357 12.0999 112.675 12.606 113.443 13.6181C114.106 14.4907 114.437 15.8432 114.437 17.6756V26H110.72V18.3562C110.72 16.1399 109.926 15.0317 108.338 15.0317C107.326 15.0317 106.593 15.3371 106.139 15.9479C105.685 16.5587 105.459 17.5447 105.459 18.906V26H101.741ZM125.884 20.7645V19.3771C125.587 19.6389 124.942 19.8396 123.947 19.9792C122.813 20.1537 122.062 20.3195 121.696 20.4766C120.963 20.8082 120.596 21.3666 120.596 22.1519C120.596 23.3037 121.355 23.8796 122.874 23.8796C124.881 23.8796 125.884 22.8413 125.884 20.7645ZM121.015 16.6285H117.298C117.403 15.023 118.109 13.8363 119.418 13.0684C120.5 12.4227 121.914 12.0999 123.659 12.0999C127.62 12.0999 129.601 13.3825 129.601 15.9479V22.9896C129.601 24.4904 129.758 25.4939 130.072 26H126.303C126.146 25.5114 126.059 25.0751 126.041 24.6911C124.977 25.808 123.458 26.3665 121.486 26.3665C120.125 26.3665 119.034 26.0349 118.214 25.3717C117.324 24.6562 116.879 23.6353 116.879 22.309C116.879 20.9303 117.359 19.9007 118.319 19.2201C119.017 18.7489 120.073 18.4086 121.486 18.1992C123.493 17.9199 124.514 17.7716 124.549 17.7542C125.439 17.5273 125.884 17.0823 125.884 16.4191C125.884 15.6861 125.64 15.1801 125.151 14.9008C124.802 14.6914 124.244 14.5867 123.476 14.5867C121.957 14.5867 121.137 15.2673 121.015 16.6285Z" fill="white"/>
<path d="M12.4342 29.0133C10.7763 27.5276 8.87665 26.3915 6.7352 25.605C4.59375 24.8185 2.34868 24.4252 0 24.4252V10.0054C2.32566 10.0054 4.55921 10.4043 6.70066 11.2022C8.8421 12.0001 10.7533 13.1524 12.4342 14.659C14.1151 13.1515 16.0263 11.9988 18.1678 11.2009C20.3092 10.403 22.5428 10.0045 24.8684 10.0054V24.4252C22.4967 24.4252 20.2457 24.8185 18.1153 25.605C15.9849 26.3915 14.0912 27.5276 12.4342 29.0133ZM12.4342 25.605C13.8849 24.5781 15.4276 23.7588 17.0625 23.1471C18.6974 22.5353 20.3783 22.1311 22.1053 21.9345V12.8893C20.4243 13.1733 18.772 13.7471 17.1482 14.6105C15.5243 15.474 13.953 16.6262 12.4342 18.0674C10.9145 16.6254 9.3427 15.4727 7.71888 14.6092C6.09507 13.7458 4.44316 13.1725 2.76316 12.8893V21.9345C4.49013 22.1311 6.17105 22.5353 7.80592 23.1471C9.44079 23.7588 10.9836 24.5781 12.4342 25.605ZM12.4342 11.3162C10.9145 11.3162 9.61349 10.8028 8.53125 9.77595C7.44901 8.74908 6.90789 7.51466 6.90789 6.07268C6.90789 4.63069 7.44901 3.39627 8.53125 2.3694C9.61349 1.34253 10.9145 0.829102 12.4342 0.829102C13.9539 0.829102 15.2549 1.34253 16.3372 2.3694C17.4194 3.39627 17.9605 4.63069 17.9605 6.07268C17.9605 7.51466 17.4194 8.74908 16.3372 9.77595C15.2549 10.8028 13.9539 11.3162 12.4342 11.3162ZM12.4342 8.69446C13.1941 8.69446 13.8448 8.43753 14.3864 7.92366C14.928 7.40979 15.1983 6.79279 15.1974 6.07268C15.1974 5.35168 14.9266 4.73425 14.385 4.22038C13.8434 3.70651 13.1932 3.45001 12.4342 3.45089C11.6743 3.45089 11.0236 3.70782 10.482 4.22169C9.94046 4.73556 9.67013 5.35256 9.67105 6.07268C9.67105 6.79367 9.94184 7.4111 10.4834 7.92497C11.025 8.43884 11.6753 8.69534 12.4342 8.69446Z" fill="white"/>
</svg>
