<svg width="153" height="32" viewBox="0 0 153 32" fill="#fff" xmlns="http://www.w3.org/2000/svg">
<path d="M36.6133 17.0376V21.9427H40.8177C42.7531 21.9427 43.7208 21.1585 43.7208 19.5902C43.7208 17.8884 42.7781 17.0376 40.8928 17.0376H36.6133ZM32.6843 24.9958V7.12724H41.093C44.897 7.12724 46.799 8.60378 46.799 11.5569C46.799 13.2586 45.9898 14.5016 44.3714 15.2857C46.557 15.9197 47.6498 17.4296 47.6498 19.8155C47.6498 21.5172 46.9992 22.8353 45.6978 23.7696C44.5633 24.5871 43.1118 24.9958 41.3433 24.9958H32.6843ZM36.6133 10.1804V14.3598H40.5925C42.1942 14.3598 42.995 13.6507 42.995 12.2326C42.995 10.8645 42.0941 10.1804 40.2922 10.1804H36.6133ZM50.2176 24.9958V12.0574H53.7713V24.9958H50.2176ZM53.7713 7.12724V10.0553H50.2176V7.12724H53.7713ZM56.7572 24.9958V7.12724H60.3109V13.634H60.3609C61.2118 12.3493 62.5716 11.707 64.4402 11.707C65.875 11.707 67.0929 12.2492 68.094 13.3337C69.2285 14.585 69.7958 16.3118 69.7958 18.5141C69.7958 20.7331 69.2285 22.4682 68.094 23.7195C67.0929 24.804 65.875 25.3462 64.4402 25.3462C62.338 25.3462 60.9199 24.6789 60.1858 23.3441H60.1357V24.9958H56.7572ZM66.2421 18.5391C66.2421 17.3546 66.0001 16.3869 65.5163 15.6361C64.9824 14.8019 64.2149 14.3848 63.2139 14.3848C62.2129 14.3848 61.4454 14.8019 60.9115 15.6361C60.4277 16.3869 60.1858 17.3546 60.1858 18.5391C60.1858 19.707 60.4277 20.6663 60.9115 21.4171C61.4621 22.2513 62.2295 22.6684 63.2139 22.6684C64.1983 22.6684 64.9657 22.2513 65.5163 21.4171C66.0001 20.6663 66.2421 19.707 66.2421 18.5391ZM72.3441 24.9958V7.12724H75.8978V24.9958H72.3441ZM78.9838 24.9958V12.0574H82.5375V24.9958H78.9838ZM82.5375 7.12724V10.0553H78.9838V7.12724H82.5375ZM85.1231 18.5391C85.1231 16.4703 85.732 14.8186 86.95 13.584C88.1679 12.3327 89.7862 11.707 91.805 11.707C93.8405 11.707 95.4672 12.3327 96.6851 13.584C97.903 14.8186 98.512 16.4703 98.512 18.5391C98.512 20.5913 97.903 22.243 96.6851 23.4943C95.4672 24.7289 93.8405 25.3462 91.805 25.3462C89.7862 25.3462 88.1679 24.7289 86.95 23.4943C85.732 22.243 85.1231 20.5913 85.1231 18.5391ZM88.6768 18.5391C88.6768 19.7237 88.902 20.6663 89.3525 21.3671C89.8863 22.2346 90.7039 22.6684 91.805 22.6684C93.9072 22.6684 94.9583 21.292 94.9583 18.5391C94.9583 15.7696 93.9072 14.3848 91.805 14.3848C89.7195 14.3848 88.6768 15.7696 88.6768 18.5391ZM105.515 8.17833V12.0574H108.118V14.4348H105.515V20.8415C105.515 21.4421 105.615 21.8426 105.815 22.0428C106.016 22.243 106.416 22.3431 107.017 22.3431C107.417 22.3431 107.784 22.3097 108.118 22.243V25.0209C107.617 25.1043 106.925 25.146 106.041 25.146C103.321 25.146 101.961 24.1199 101.961 22.0678V14.4348H99.8091V12.0574H101.961V8.17833H105.515ZM122.259 19.39H112.924C113.024 21.5756 114.084 22.6684 116.103 22.6684C116.787 22.6684 117.404 22.4849 117.955 22.1179C118.472 21.8009 118.789 21.4255 118.906 20.9917H122.034C121.083 23.8947 119.064 25.3462 115.977 25.3462C113.959 25.3462 112.349 24.7206 111.147 23.4693C109.963 22.2013 109.371 20.5579 109.371 18.5391C109.371 16.5704 109.98 14.9437 111.197 13.659C112.432 12.3577 114.025 11.707 115.977 11.707C118.08 11.707 119.706 12.4912 120.858 14.0595C121.925 15.4943 122.392 17.2711 122.259 19.39ZM112.924 17.1377H118.705C118.372 15.3024 117.429 14.3848 115.877 14.3848C114.876 14.3848 114.109 14.7185 113.575 15.3858C113.175 15.8864 112.958 16.4703 112.924 17.1377ZM136.842 16.6121H133.364C133.13 15.1272 132.254 14.3848 130.736 14.3848C129.701 14.3848 128.909 14.8436 128.358 15.7612C127.925 16.5287 127.708 17.4713 127.708 18.5892C127.708 19.6736 127.925 20.5829 128.358 21.317C128.876 22.218 129.643 22.6684 130.661 22.6684C132.296 22.6684 133.238 21.7925 133.489 20.0407H136.917C136.7 21.7425 136.033 23.0522 134.915 23.9698C133.814 24.8874 132.404 25.3462 130.686 25.3462C128.75 25.3462 127.174 24.7289 125.956 23.4943C124.755 22.2597 124.154 20.6663 124.154 18.7143C124.154 16.6455 124.73 14.9771 125.881 13.7091C127.082 12.3744 128.709 11.707 130.761 11.707C132.396 11.707 133.764 12.1074 134.865 12.9083C136.083 13.8092 136.742 15.0438 136.842 16.6121ZM147.171 19.9906V18.6643C146.887 18.9145 146.27 19.1064 145.319 19.2399C144.234 19.4067 143.517 19.5652 143.167 19.7153C142.466 20.0323 142.116 20.5662 142.116 21.317C142.116 22.4182 142.841 22.9687 144.293 22.9687C146.212 22.9687 147.171 21.976 147.171 19.9906ZM142.516 16.0365H138.962C139.062 14.5016 139.738 13.3671 140.989 12.633C142.024 12.0157 143.375 11.707 145.044 11.707C148.831 11.707 150.725 12.9333 150.725 15.3858V22.1179C150.725 23.5527 150.875 24.512 151.175 24.9958H147.571C147.421 24.5287 147.338 24.1116 147.321 23.7445C146.303 24.8123 144.852 25.3462 142.967 25.3462C141.665 25.3462 140.622 25.0292 139.838 24.3952C138.987 23.7112 138.562 22.7352 138.562 21.4672C138.562 20.1491 139.021 19.1648 139.938 18.5141C140.606 18.0636 141.615 17.7383 142.967 17.5381C144.885 17.2711 145.861 17.1293 145.895 17.1126C146.745 16.8957 147.171 16.4703 147.171 15.8363C147.171 15.1356 146.937 14.6517 146.47 14.3848C146.136 14.1846 145.603 14.0845 144.868 14.0845C143.417 14.0845 142.633 14.7352 142.516 16.0365Z" fill="#fff"/>
<path d="M12.7302 28.7331C11.1452 27.3127 9.32904 26.2266 7.28177 25.4746C5.2345 24.7227 3.08817 24.3467 0.842773 24.3467V10.561C3.06615 10.561 5.20148 10.9424 7.24875 11.7052C9.29602 12.4681 11.1232 13.5697 12.7302 15.01C14.3372 13.5688 16.1643 12.4668 18.2116 11.704C20.2588 10.9412 22.3942 10.5602 24.6175 10.561V24.3467C22.3501 24.3467 20.1981 24.7227 18.1614 25.4746C16.1247 26.2266 14.3143 27.3127 12.7302 28.7331ZM12.7302 25.4746C14.117 24.4929 15.5919 23.7096 17.1549 23.1248C18.7179 22.5399 20.3249 22.1535 21.9759 21.9655V13.3182C20.3689 13.5897 18.7892 14.1382 17.2368 14.9637C15.6844 15.7891 14.1822 16.8907 12.7302 18.2685C11.2773 16.8899 9.7746 15.7879 8.2222 14.9624C6.66979 14.137 5.09053 13.5889 3.48441 13.3182V21.9655C5.13544 22.1535 6.74244 22.5399 8.30541 23.1248C9.86838 23.7096 11.3433 24.4929 12.7302 25.4746ZM12.7302 11.8143C11.2773 11.8143 10.0335 11.3234 8.99884 10.3417C7.96419 9.36001 7.44687 8.17987 7.44687 6.8013C7.44687 5.42274 7.96419 4.2426 8.99884 3.26089C10.0335 2.27918 11.2773 1.78833 12.7302 1.78833C14.1831 1.78833 15.4268 2.27918 16.4615 3.26089C17.4961 4.2426 18.0134 5.42274 18.0134 6.8013C18.0134 8.17987 17.4961 9.36001 16.4615 10.3417C15.4268 11.3234 14.1831 11.8143 12.7302 11.8143ZM12.7302 9.30779C13.4566 9.30779 14.0787 9.06215 14.5965 8.57088C15.1142 8.07961 15.3727 7.48975 15.3718 6.8013C15.3718 6.11202 15.1129 5.52174 14.5952 5.03047C14.0774 4.5392 13.4557 4.29398 12.7302 4.29482C12.0037 4.29482 11.3816 4.54045 10.8638 5.03172C10.3461 5.52299 10.0876 6.11285 10.0885 6.8013C10.0885 7.49059 10.3474 8.08086 10.8652 8.57214C11.3829 9.06341 12.0046 9.30862 12.7302 9.30779Z" fill="##fff"/>
</svg>
